<?xml version="1.0" encoding="UTF-8" standalone="no"?>
<!DOCTYPE svg PUBLIC "-//W3C//DTD SVG 1.1//EN"
 "http://www.w3.org/Graphics/SVG/1.1/DTD/svg11.dtd">
<!-- Generated by graphviz version 14.0.4 (20251115.1723)
 -->
<!-- Pages: 1 -->
<svg width="1166pt" height="511pt"
 viewBox="0.00 0.00 1166.00 511.00" xmlns="http://www.w3.org/2000/svg" xmlns:xlink="http://www.w3.org/1999/xlink">
<g id="graph0" class="graph" transform="scale(1 1) rotate(0) translate(4 507)">
<polygon fill="white" stroke="none" points="-4,4 -4,-507 1161.88,-507 1161.88,4 -4,4"/>
<!-- RectBivariateSpline_init -->
<g id="node1" class="node">
<title>RectBivariateSpline_init</title>
<polygon fill="none" stroke="black" points="632.62,-503 454.62,-503 454.62,-462 632.62,-462 632.62,-503"/>
<text xml:space="preserve" text-anchor="middle" x="543.62" y="-485.7" font-family="Times,serif" font-size="14.00">RectBivariateSpline.__init__</text>
<text xml:space="preserve" text-anchor="middle" x="543.62" y="-469.2" font-family="Times,serif" font-size="14.00">scipy/interpolate/_fitpack2.py</text>
</g>
<!-- _regrid_smth -->
<g id="node2" class="node">
<title>_regrid_smth</title>
<polygon fill="none" stroke="black" points="632.62,-426 454.62,-426 454.62,-385 632.62,-385 632.62,-426"/>
<text xml:space="preserve" text-anchor="middle" x="543.62" y="-408.7" font-family="Times,serif" font-size="14.00">_regrid_smth</text>
<text xml:space="preserve" text-anchor="middle" x="543.62" y="-392.2" font-family="Times,serif" font-size="14.00">scipy/interpolate/_fitpack2.py</text>
</g>
<!-- RectBivariateSpline_init&#45;&gt;_regrid_smth -->
<g id="edge1" class="edge">
<title>RectBivariateSpline_init&#45;&gt;_regrid_smth</title>
<path fill="none" stroke="black" d="M543.62,-461.79C543.62,-454.45 543.62,-445.91 543.62,-437.78"/>
<polygon fill="black" stroke="black" points="547.13,-437.85 543.63,-427.85 540.13,-437.85 547.13,-437.85"/>
</g>
<!-- fitpack_regrid -->
<g id="node3" class="node">
<title>fitpack_regrid</title>
<polygon fill="none" stroke="black" points="655.88,-349 431.38,-349 431.38,-308 655.88,-308 655.88,-349"/>
<text xml:space="preserve" text-anchor="middle" x="543.62" y="-331.7" font-family="Times,serif" font-size="14.00">fitpack_regrid</text>
<text xml:space="preserve" text-anchor="middle" x="543.62" y="-315.2" font-family="Times,serif" font-size="14.00">scipy/interpolate/src/_fitpackmodule.c</text>
</g>
<!-- _regrid_smth&#45;&gt;fitpack_regrid -->
<g id="edge2" class="edge">
<title>_regrid_smth&#45;&gt;fitpack_regrid</title>
<path fill="none" stroke="black" d="M543.62,-384.79C543.62,-377.45 543.62,-368.91 543.62,-360.78"/>
<polygon fill="black" stroke="black" points="547.13,-360.85 543.63,-350.85 540.13,-360.85 547.13,-360.85"/>
</g>
<!-- regrid -->
<g id="node4" class="node">
<title>regrid</title>
<polygon fill="none" stroke="black" points="635.25,-272 452,-272 452,-231 635.25,-231 635.25,-272"/>
<text xml:space="preserve" text-anchor="middle" x="543.62" y="-254.7" font-family="Times,serif" font-size="14.00">regrid</text>
<text xml:space="preserve" text-anchor="middle" x="543.62" y="-238.2" font-family="Times,serif" font-size="14.00">scipy/interpolate/src/dfitpack.c</text>
</g>
<!-- fitpack_regrid&#45;&gt;regrid -->
<g id="edge3" class="edge">
<title>fitpack_regrid&#45;&gt;regrid</title>
<path fill="none" stroke="black" d="M543.62,-307.79C543.62,-300.45 543.62,-291.91 543.62,-283.78"/>
<polygon fill="black" stroke="black" points="547.13,-283.85 543.63,-273.85 540.13,-283.85 547.13,-283.85"/>
</g>
<!-- fpchec -->
<g id="node5" class="node">
<title>fpchec</title>
<polygon fill="none" stroke="black" points="534.25,-195 351,-195 351,-154 534.25,-154 534.25,-195"/>
<text xml:space="preserve" text-anchor="middle" x="442.62" y="-177.7" font-family="Times,serif" font-size="14.00">fpchec</text>
<text xml:space="preserve" text-anchor="middle" x="442.62" y="-161.2" font-family="Times,serif" font-size="14.00">scipy/interpolate/src/dfitpack.c</text>
</g>
<!-- regrid&#45;&gt;fpchec -->
<g id="edge4" class="edge">
<title>regrid&#45;&gt;fpchec</title>
<path fill="none" stroke="black" d="M516.82,-230.6C505.07,-221.87 491.09,-211.49 478.46,-202.11"/>
<polygon fill="black" stroke="black" points="480.88,-199.55 470.77,-196.4 476.71,-205.17 480.88,-199.55"/>
</g>
<!-- fpregr -->
<g id="node6" class="node">
<title>fpregr</title>
<polygon fill="none" stroke="black" points="735.25,-195 552,-195 552,-154 735.25,-154 735.25,-195"/>
<text xml:space="preserve" text-anchor="middle" x="643.62" y="-177.7" font-family="Times,serif" font-size="14.00">fpregr</text>
<text xml:space="preserve" text-anchor="middle" x="643.62" y="-161.2" font-family="Times,serif" font-size="14.00">scipy/interpolate/src/dfitpack.c</text>
</g>
<!-- regrid&#45;&gt;fpregr -->
<g id="edge5" class="edge">
<title>regrid&#45;&gt;fpregr</title>
<path fill="none" stroke="black" d="M570.16,-230.6C581.69,-221.95 595.37,-211.69 607.78,-202.39"/>
<polygon fill="black" stroke="black" points="609.85,-205.2 615.75,-196.4 605.65,-199.6 609.85,-205.2"/>
</g>
<!-- fpgrre -->
<g id="node7" class="node">
<title>fpgrre</title>
<polygon fill="none" stroke="black" points="534.25,-118 351,-118 351,-77 534.25,-77 534.25,-118"/>
<text xml:space="preserve" text-anchor="middle" x="442.62" y="-100.7" font-family="Times,serif" font-size="14.00">fpgrre</text>
<text xml:space="preserve" text-anchor="middle" x="442.62" y="-84.2" font-family="Times,serif" font-size="14.00">scipy/interpolate/src/dfitpack.c</text>
</g>
<!-- fpregr&#45;&gt;fpgrre -->
<g id="edge6" class="edge">
<title>fpregr&#45;&gt;fpgrre</title>
<path fill="none" stroke="black" d="M590.29,-153.6C564.62,-144.02 533.64,-132.46 506.7,-122.41"/>
<polygon fill="black" stroke="black" points="508.22,-119.24 497.63,-119.02 505.77,-125.8 508.22,-119.24"/>
</g>
<!-- fpknot -->
<g id="node8" class="node">
<title>fpknot</title>
<polygon fill="none" stroke="black" points="735.25,-118 552,-118 552,-77 735.25,-77 735.25,-118"/>
<text xml:space="preserve" text-anchor="middle" x="643.62" y="-100.7" font-family="Times,serif" font-size="14.00">fpknot</text>
<text xml:space="preserve" text-anchor="middle" x="643.62" y="-84.2" font-family="Times,serif" font-size="14.00">scipy/interpolate/src/dfitpack.c</text>
</g>
<!-- fpregr&#45;&gt;fpknot -->
<g id="edge7" class="edge">
<title>fpregr&#45;&gt;fpknot</title>
<path fill="none" stroke="black" d="M643.62,-153.79C643.62,-146.45 643.62,-137.91 643.62,-129.78"/>
<polygon fill="black" stroke="black" points="647.13,-129.85 643.63,-119.85 640.13,-129.85 647.13,-129.85"/>
</g>
<!-- fprati -->
<g id="node9" class="node">
<title>fprati</title>
<polygon fill="none" stroke="black" points="936.25,-118 753,-118 753,-77 936.25,-77 936.25,-118"/>
<text xml:space="preserve" text-anchor="middle" x="844.62" y="-100.7" font-family="Times,serif" font-size="14.00">fprati</text>
<text xml:space="preserve" text-anchor="middle" x="844.62" y="-84.2" font-family="Times,serif" font-size="14.00">scipy/interpolate/src/dfitpack.c</text>
</g>
<!-- fpregr&#45;&gt;fprati -->
<g id="edge8" class="edge">
<title>fpregr&#45;&gt;fprati</title>
<path fill="none" stroke="black" d="M696.96,-153.6C722.63,-144.02 753.61,-132.46 780.55,-122.41"/>
<polygon fill="black" stroke="black" points="781.48,-125.8 789.62,-119.02 779.03,-119.24 781.48,-125.8"/>
</g>
<!-- fpback -->
<g id="node10" class="node">
<title>fpback</title>
<polygon fill="none" stroke="black" points="183.25,-41 0,-41 0,0 183.25,0 183.25,-41"/>
<text xml:space="preserve" text-anchor="middle" x="91.62" y="-23.7" font-family="Times,serif" font-size="14.00">(S) fpback</text>
<text xml:space="preserve" text-anchor="middle" x="91.62" y="-7.2" font-family="Times,serif" font-size="14.00">scipy/interpolate/src/dfitpack.c</text>
</g>
<!-- fpgrre&#45;&gt;fpback -->
<g id="edge9" class="edge">
<title>fpgrre&#45;&gt;fpback</title>
<path fill="none" stroke="black" d="M350.86,-76.89C302.9,-66.64 244.03,-54.07 194.52,-43.49"/>
<polygon fill="black" stroke="black" points="195.45,-40.11 184.94,-41.44 193.99,-46.95 195.45,-40.11"/>
</g>
<!-- fpdisc -->
<g id="node11" class="node">
<title>fpdisc</title>
<polygon fill="none" stroke="black" points="384.25,-41 201,-41 201,0 384.25,0 384.25,-41"/>
<text xml:space="preserve" text-anchor="middle" x="292.62" y="-23.7" font-family="Times,serif" font-size="14.00">(S) fpdisc</text>
<text xml:space="preserve" text-anchor="middle" x="292.62" y="-7.2" font-family="Times,serif" font-size="14.00">scipy/interpolate/src/dfitpack.c</text>
</g>
<!-- fpgrre&#45;&gt;fpdisc -->
<g id="edge11" class="edge">
<title>fpgrre&#45;&gt;fpdisc</title>
<path fill="none" stroke="black" d="M402.82,-76.6C384.43,-67.4 362.38,-56.38 342.86,-46.62"/>
<polygon fill="black" stroke="black" points="344.48,-43.51 333.97,-42.17 341.35,-49.77 344.48,-43.51"/>
</g>
<!-- fpgivs -->
<g id="node12" class="node">
<title>fpgivs</title>
<polygon fill="none" stroke="black" points="585.25,-41 402,-41 402,0 585.25,0 585.25,-41"/>
<text xml:space="preserve" text-anchor="middle" x="493.62" y="-23.7" font-family="Times,serif" font-size="14.00">(S) fpgivs</text>
<text xml:space="preserve" text-anchor="middle" x="493.62" y="-7.2" font-family="Times,serif" font-size="14.00">scipy/interpolate/src/dfitpack.c</text>
</g>
<!-- fpgrre&#45;&gt;fpgivs -->
<g id="edge12" class="edge">
<title>fpgrre&#45;&gt;fpgivs</title>
<path fill="none" stroke="black" d="M456.02,-76.79C461.43,-68.85 467.78,-59.51 473.7,-50.8"/>
<polygon fill="black" stroke="black" points="476.56,-52.82 479.29,-42.59 470.77,-48.89 476.56,-52.82"/>
</g>
<!-- fprota -->
<g id="node13" class="node">
<title>fprota</title>
<polygon fill="none" stroke="black" points="786.25,-41 603,-41 603,0 786.25,0 786.25,-41"/>
<text xml:space="preserve" text-anchor="middle" x="694.62" y="-23.7" font-family="Times,serif" font-size="14.00">(S) fprota</text>
<text xml:space="preserve" text-anchor="middle" x="694.62" y="-7.2" font-family="Times,serif" font-size="14.00">scipy/interpolate/src/dfitpack.c</text>
</g>
<!-- fpgrre&#45;&gt;fprota -->
<g id="edge13" class="edge">
<title>fpgrre&#45;&gt;fprota</title>
<path fill="none" stroke="black" d="M509.49,-76.6C542.39,-66.81 582.23,-54.95 616.52,-44.75"/>
<polygon fill="black" stroke="black" points="617.41,-48.13 625.99,-41.93 615.41,-41.42 617.41,-48.13"/>
</g>
<!-- fpbspl -->
<g id="node14" class="node">
<title>fpbspl</title>
<polygon fill="none" stroke="black" points="1087.25,-41 904,-41 904,0 1087.25,0 1087.25,-41"/>
<text xml:space="preserve" text-anchor="middle" x="995.62" y="-23.7" font-family="Times,serif" font-size="14.00">fpbspl</text>
<text xml:space="preserve" text-anchor="middle" x="995.62" y="-7.2" font-family="Times,serif" font-size="14.00">scipy/interpolate/src/dfitpack.c</text>
</g>
<!-- fpgrre&#45;&gt;fpbspl -->
<g id="edge10" class="edge">
<title>fpgrre&#45;&gt;fpbspl</title>
<path fill="none" stroke="black" d="M534.67,-78.3C537.35,-77.85 540,-77.42 542.62,-77 662.26,-58.03 800.55,-41.93 892.56,-32.03"/>
<polygon fill="black" stroke="black" points="892.75,-35.53 902.32,-30.98 892,-28.57 892.75,-35.53"/>
</g>
<!-- BivariateSpline_call -->
<g id="node15" class="node">
<title>BivariateSpline_call</title>
<polygon fill="none" stroke="black" points="1134.62,-349 956.62,-349 956.62,-308 1134.62,-308 1134.62,-349"/>
<text xml:space="preserve" text-anchor="middle" x="1045.62" y="-331.7" font-family="Times,serif" font-size="14.00">BivariateSpline.__call__</text>
<text xml:space="preserve" text-anchor="middle" x="1045.62" y="-315.2" font-family="Times,serif" font-size="14.00">scipy/interpolate/_fitpack2.py</text>
</g>
<!-- fitpack_bispev -->
<g id="node16" class="node">
<title>fitpack_bispev</title>
<polygon fill="none" stroke="black" points="1157.88,-272 933.38,-272 933.38,-231 1157.88,-231 1157.88,-272"/>
<text xml:space="preserve" text-anchor="middle" x="1045.62" y="-254.7" font-family="Times,serif" font-size="14.00">fitpack_bispev</text>
<text xml:space="preserve" text-anchor="middle" x="1045.62" y="-238.2" font-family="Times,serif" font-size="14.00">scipy/interpolate/src/_fitpackmodule.c</text>
</g>
<!-- BivariateSpline_call&#45;&gt;fitpack_bispev -->
<g id="edge14" class="edge">
<title>BivariateSpline_call&#45;&gt;fitpack_bispev</title>
<path fill="none" stroke="black" d="M1045.62,-307.79C1045.62,-300.45 1045.62,-291.91 1045.62,-283.78"/>
<polygon fill="black" stroke="black" points="1049.13,-283.85 1045.63,-273.85 1042.13,-283.85 1049.13,-283.85"/>
</g>
<!-- bispev -->
<g id="node17" class="node">
<title>bispev</title>
<polygon fill="none" stroke="black" points="1137.25,-195 954,-195 954,-154 1137.25,-154 1137.25,-195"/>
<text xml:space="preserve" text-anchor="middle" x="1045.62" y="-177.7" font-family="Times,serif" font-size="14.00">bispev</text>
<text xml:space="preserve" text-anchor="middle" x="1045.62" y="-161.2" font-family="Times,serif" font-size="14.00">scipy/interpolate/src/dfitpack.c</text>
</g>
<!-- fitpack_bispev&#45;&gt;bispev -->
<g id="edge15" class="edge">
<title>fitpack_bispev&#45;&gt;bispev</title>
<path fill="none" stroke="black" d="M1045.62,-230.79C1045.62,-223.45 1045.62,-214.91 1045.62,-206.78"/>
<polygon fill="black" stroke="black" points="1049.13,-206.85 1045.63,-196.85 1042.13,-206.85 1049.13,-206.85"/>
</g>
<!-- fpbisp -->
<g id="node18" class="node">
<title>fpbisp</title>
<polygon fill="none" stroke="black" points="1137.25,-118 954,-118 954,-77 1137.25,-77 1137.25,-118"/>
<text xml:space="preserve" text-anchor="middle" x="1045.62" y="-100.7" font-family="Times,serif" font-size="14.00">fpbisp</text>
<text xml:space="preserve" text-anchor="middle" x="1045.62" y="-84.2" font-family="Times,serif" font-size="14.00">scipy/interpolate/src/dfitpack.c</text>
</g>
<!-- bispev&#45;&gt;fpbisp -->
<g id="edge16" class="edge">
<title>bispev&#45;&gt;fpbisp</title>
<path fill="none" stroke="black" d="M1045.62,-153.79C1045.62,-146.45 1045.62,-137.91 1045.62,-129.78"/>
<polygon fill="black" stroke="black" points="1049.13,-129.85 1045.63,-119.85 1042.13,-129.85 1049.13,-129.85"/>
</g>
<!-- fpbisp&#45;&gt;fpbspl -->
<g id="edge17" class="edge">
<title>fpbisp&#45;&gt;fpbspl</title>
<path fill="none" stroke="black" d="M1032.49,-76.79C1027.19,-68.85 1020.97,-59.51 1015.16,-50.8"/>
<polygon fill="black" stroke="black" points="1018.15,-48.97 1009.69,-42.59 1012.32,-52.86 1018.15,-48.97"/>
</g>
</g>
</svg>
